<svg xmlns="http://www.w3.org/2000/svg" width="1440" height="900" viewBox="0 0 1440 900" font-family="Inter, 'Segoe UI', Arial, sans-serif">
  <rect width="1440" height="900" fill="#ffffff"/>

  <!-- ===================== LEFT SIDEBAR ===================== -->
  <rect x="0" y="0" width="260" height="900" fill="#fafafa"/>
  <line x1="260" y1="0" x2="260" y2="900" stroke="#e5e7eb"/>
  <rect x="20" y="24" width="24" height="24" rx="7" fill="none" stroke="#6366f1" stroke-width="2.4"/>
  <path d="M27 36l4 4 7-7" fill="none" stroke="#6366f1" stroke-width="2.4" stroke-linecap="round" stroke-linejoin="round"/>
  <text x="54" y="42" font-size="16" font-weight="700" fill="#0f172a">Agentic</text>
  <text x="124" y="38" font-size="10" font-weight="700" fill="#a855f7">v2</text>

  <rect x="16" y="64" width="228" height="34" rx="9" fill="#6366f1"/>
  <text x="130" y="86" font-size="13" font-weight="600" fill="#fff" text-anchor="middle">+  New Chat</text>

  <g font-size="13" fill="#475569">
    <text x="48" y="136">Systems</text>
    <rect x="12" y="152" width="236" height="32" rx="8" fill="#eef2ff"/>
    <text x="48" y="173" font-weight="700" fill="#4f46e5">Agents</text>
    <text x="48" y="212">Tools</text>
    <text x="48" y="248">Services</text>
    <text x="48" y="284">MCP</text>
    <text x="48" y="320">Workspaces</text>
    <text x="48" y="356">Activity</text>
  </g>

  <text x="20" y="430" font-size="10" font-weight="700" fill="#94a3b8" letter-spacing="0.5">TODAY</text>
  <g font-size="12" fill="#64748b">
    <text x="44" y="460">New Conversation</text>
    <text x="44" y="488">New Conversation</text>
    <text x="44" y="516">New Conversation</text>
  </g>

  <line x1="16" y1="850" x2="244" y2="850" stroke="#e5e7eb"/>
  <circle cx="34" cy="876" r="12" fill="#a855f7"/>
  <text x="34" y="880" font-size="10" fill="#fff" text-anchor="middle">S</text>
  <text x="54" y="873" font-size="12" font-weight="600" fill="#0f172a">sajid@northrays.com</text>
  <text x="54" y="888" font-size="10" fill="#94a3b8">Free Plan</text>

  <!-- ===================== TOP BAR ===================== -->
  <rect x="260" y="0" width="1180" height="56" fill="#ffffff"/>
  <line x1="260" y1="56" x2="1440" y2="56" stroke="#e5e7eb"/>
  <text x="288" y="34" font-size="13" fill="#6366f1">&#8592;  Agents</text>
  <text x="384" y="34" font-size="16" font-weight="700" fill="#0f172a">Support Agent</text>
  <text x="1112" y="34" font-size="12" fill="#16a34a">Saved &#10003;</text>
  <rect x="1184" y="13" width="74" height="30" rx="8" fill="#fff" stroke="#c7d2fe"/>
  <text x="1221" y="33" font-size="12" font-weight="600" fill="#4f46e5" text-anchor="middle">&#9656; Test</text>
  <rect x="1268" y="13" width="150" height="30" rx="8" fill="#6366f1"/>
  <text x="1343" y="33" font-size="12" font-weight="600" fill="#fff" text-anchor="middle">Save &amp; Publish &#9662;</text>

  <!-- ===================== CANVAS ===================== -->
  <rect x="260" y="56" width="700" height="844" fill="#ffffff"/>
  <line x1="960" y1="56" x2="960" y2="900" stroke="#e5e7eb"/>
  <rect x="838" y="74" width="96" height="28" rx="8" fill="#eef2ff"/>
  <text x="886" y="92" font-size="11" font-weight="600" fill="#4f46e5" text-anchor="middle">Get help &#9737;</text>

  <!-- Section: Behavior / Instructions -->
  <text x="288" y="98" font-size="15" font-weight="700" fill="#0f172a">&#128221;  Instructions</text>
  <circle cx="430" cy="93" r="7" fill="#f1f5f9"/><text x="430" y="97" font-size="9" fill="#94a3b8" text-anchor="middle">?</text>
  <text x="455" y="98" font-size="12" fill="#94a3b8">— how should your agent behave?</text>
  <rect x="288" y="112" width="646" height="104" rx="12" fill="#f8fafc" stroke="#e5e7eb"/>
  <text x="306" y="140" font-size="13" fill="#334155">You are a friendly, conversational support assistant.</text>
  <text x="306" y="164" font-size="13" fill="#334155">&#8226; Only answer using information from the connected Knowledge Base.</text>
  <text x="306" y="188" font-size="13" fill="#334155">&#8226; If you can't find the info, say so and offer a human handoff.</text>
  <rect x="306" y="200" width="150" height="0" /> <!-- spacer -->
  <rect x="836" y="124" width="86" height="24" rx="8" fill="#eef2ff"/>
  <text x="879" y="140" font-size="10" font-weight="600" fill="#4f46e5" text-anchor="middle">&#10022; Templates &#9662;</text>

  <!-- Section: Knowledge bases -->
  <text x="288" y="262" font-size="15" font-weight="700" fill="#0f172a">&#128214;  Knowledge bases</text>
  <circle cx="470" cy="257" r="7" fill="#f1f5f9"/><text x="470" y="261" font-size="9" fill="#94a3b8" text-anchor="middle">?</text>
  <!-- colorful source pills -->
  <g font-size="11" font-weight="600">
    <rect x="288" y="278" width="86" height="28" rx="8" fill="#eff6ff" stroke="#bfdbfe"/><text x="331" y="296" fill="#2563eb" text-anchor="middle">&#127760; Website</text>
    <rect x="382" y="278" width="96" height="28" rx="8" fill="#fffbeb" stroke="#fde68a"/><text x="430" y="296" fill="#b45309" text-anchor="middle">&#128196; Document</text>
    <rect x="486" y="278" width="68" height="28" rx="8" fill="#ecfdf5" stroke="#a7f3d0"/><text x="520" y="296" fill="#059669" text-anchor="middle">&#9638; Table</text>
    <rect x="562" y="278" width="104" height="28" rx="8" fill="#f8fafc" stroke="#e2e8f0"/><text x="614" y="296" fill="#475569" text-anchor="middle">&#128269; Web Search</text>
    <rect x="674" y="278" width="84" height="28" rx="8" fill="#fef2f2" stroke="#fecaca"/><text x="716" y="296" fill="#dc2626" text-anchor="middle">T Rich Text</text>
    <rect x="766" y="278" width="74" height="28" rx="8" fill="#f3f4f6" stroke="#e5e7eb"/><text x="803" y="296" fill="#111827" text-anchor="middle">&#9726; Notion</text>
    <rect x="848" y="278" width="58" height="28" rx="8" fill="#f8fafc" stroke="#e2e8f0"/><text x="877" y="296" fill="#475569" text-anchor="middle">&lt;/&gt; API</text>
  </g>
  <!-- attached source list row -->
  <rect x="288" y="318" width="646" height="48" rx="10" fill="#ffffff" stroke="#e5e7eb"/>
  <rect x="302" y="330" width="24" height="24" rx="6" fill="#dcfce7"/>
  <text x="314" y="347" font-size="12" text-anchor="middle">&#127793;</text>
  <text x="338" y="340" font-size="13" font-weight="600" fill="#0f172a">theplantsmall.com</text>
  <text x="338" y="356" font-size="10" fill="#94a3b8">Added 1 day ago</text>
  <rect x="820" y="330" width="64" height="22" rx="11" fill="#f1f5f9"/>
  <text x="852" y="345" font-size="10" font-weight="600" fill="#475569" text-anchor="middle">175 pages</text>
  <circle cx="912" cy="342" r="11" fill="#dcfce7"/><text x="912" y="346" font-size="11" fill="#16a34a" text-anchor="middle">&#10003;</text>

  <!-- Section: Tools -->
  <text x="288" y="416" font-size="15" font-weight="700" fill="#0f172a">&#129517;  Tools</text>
  <circle cx="372" cy="411" r="7" fill="#f1f5f9"/><text x="372" y="415" font-size="9" fill="#94a3b8" text-anchor="middle">?</text>
  <!-- tool cards -->
  <rect x="288" y="430" width="206" height="52" rx="10" fill="#ffffff" stroke="#e5e7eb"/>
  <circle cx="312" cy="456" r="11" fill="#10a37f"/><text x="312" y="460" font-size="11" fill="#fff" text-anchor="middle">&#10022;</text>
  <text x="332" y="453" font-size="13" font-weight="600" fill="#0f172a">Generate Content</text>
  <text x="332" y="469" font-size="10" fill="#94a3b8">OpenAI</text>
  <rect x="504" y="430" width="206" height="52" rx="10" fill="#ffffff" stroke="#e5e7eb"/>
  <circle cx="528" cy="456" r="11" fill="#3b82f6"/><text x="528" y="460" font-size="11" fill="#fff" text-anchor="middle">&#127760;</text>
  <text x="548" y="453" font-size="13" font-weight="600" fill="#0f172a">Get Website Logo</text>
  <text x="548" y="469" font-size="10" fill="#94a3b8">Browser</text>
  <rect x="720" y="430" width="100" height="52" rx="10" fill="#f8fafc" stroke="#cbd5e1" stroke-dasharray="5 4"/>
  <text x="770" y="461" font-size="20" fill="#94a3b8" text-anchor="middle">+</text>

  <!-- Section: Communication Channels -->
  <text x="288" y="528" font-size="15" font-weight="700" fill="#0f172a">&#128172;  Communication Channels</text>
  <circle cx="540" cy="523" r="7" fill="#f1f5f9"/><text x="540" y="527" font-size="9" fill="#94a3b8" text-anchor="middle">?</text>
  <!-- channel rows -->
  <rect x="288" y="542" width="646" height="54" rx="10" fill="#ffffff" stroke="#e5e7eb"/>
  <rect x="304" y="556" width="26" height="26" rx="7" fill="#111827"/><text x="317" y="574" font-size="12" fill="#fff" text-anchor="middle">&#128172;</text>
  <text x="344" y="566" font-size="13" font-weight="600" fill="#0f172a">Webchat</text>
  <text x="344" y="582" font-size="10" fill="#94a3b8">Last invoked &#183; 1 day ago</text>
  <text x="918" y="574" font-size="14" fill="#16a34a" text-anchor="end">&#9679;</text>

  <rect x="288" y="600" width="646" height="54" rx="10" fill="#ffffff" stroke="#e5e7eb"/>
  <rect x="304" y="614" width="26" height="26" rx="7" fill="#25d366"/><text x="317" y="632" font-size="12" fill="#fff" text-anchor="middle">&#9742;</text>
  <text x="344" y="624" font-size="13" font-weight="600" fill="#0f172a">WhatsApp</text>
  <text x="344" y="640" font-size="10" fill="#94a3b8">Never invoked</text>

  <rect x="288" y="658" width="646" height="54" rx="10" fill="#ffffff" stroke="#e5e7eb"/>
  <rect x="304" y="672" width="26" height="26" rx="7" fill="#4a154b"/><text x="317" y="690" font-size="12" fill="#fff" text-anchor="middle">#</text>
  <text x="344" y="682" font-size="13" font-weight="600" fill="#0f172a">Slack</text>
  <text x="344" y="698" font-size="10" fill="#94a3b8">Never invoked</text>
  <text x="470" y="698" font-size="10" fill="#dc2626">&#183;  Error while configuring</text>

  <!-- channel chips -->
  <g font-size="11" font-weight="600">
    <rect x="288" y="724" width="96" height="30" rx="9" fill="#fff" stroke="#e5e7eb"/><text x="336" y="743" fill="#334155" text-anchor="middle">&#9992; Telegram</text>
    <rect x="392" y="724" width="100" height="30" rx="9" fill="#fff" stroke="#e5e7eb"/><text x="442" y="743" fill="#334155" text-anchor="middle">&#128247; Instagram</text>
    <rect x="500" y="724" width="104" height="30" rx="9" fill="#fff" stroke="#e5e7eb"/><text x="552" y="743" fill="#334155" text-anchor="middle">&#128172; Messenger</text>
    <rect x="612" y="724" width="64" height="30" rx="9" fill="#fff" stroke="#e5e7eb"/><text x="644" y="743" fill="#64748b" text-anchor="middle">&#183;&#183;&#183; More</text>
  </g>

  <!-- Advanced -->
  <line x1="288" y1="784" x2="934" y2="784" stroke="#f1f5f9"/>
  <text x="288" y="810" font-size="13" font-weight="600" fill="#475569">&#9662;  Advanced</text>
  <text x="288" y="828" font-size="11" fill="#94a3b8">model &amp; temperature &#183; prompt mode &#183; signals/webhook &#183; schedules &#183; credentials</text>

  <!-- ===================== RIGHT: INSPECTOR / EMULATOR ===================== -->
  <rect x="960" y="56" width="480" height="844" fill="#fbfbfd"/>
  <!-- tab toggle -->
  <text x="1300" y="92" font-size="12" font-weight="600" fill="#94a3b8" text-anchor="middle">Inspector</text>
  <text x="1392" y="92" font-size="12" font-weight="700" fill="#4f46e5" text-anchor="middle">Emulator</text>
  <rect x="1360" y="100" width="64" height="3" rx="2" fill="#4f46e5"/>
  <text x="984" y="130" font-size="13" font-weight="700" fill="#0f172a">Emulator</text>
  <text x="1416" y="130" font-size="13" fill="#94a3b8" text-anchor="end">&#8635;  &#8943;</text>

  <!-- chat surface -->
  <rect x="976" y="146" width="448" height="640" rx="14" fill="#ffffff" stroke="#e5e7eb"/>

  <!-- user bubble -->
  <rect x="1150" y="166" width="258" height="34" rx="12" fill="#e0e7ff"/>
  <text x="1279" y="188" font-size="11" fill="#3730a3" text-anchor="middle">can you show 4 product images in grid?</text>

  <!-- agent text -->
  <text x="998" y="230" font-size="12" fill="#0f172a">Here are 4 products from the store:</text>
  <text x="998" y="248" font-size="11" fill="#94a3b8" font-style="italic">Source: theplantsmall.com</text>

  <!-- product card -->
  <rect x="998" y="262" width="404" height="206" rx="12" fill="#ffffff" stroke="#e5e7eb"/>
  <!-- product image area -->
  <defs>
    <linearGradient id="prod" x1="0" y1="0" x2="0" y2="1">
      <stop offset="0" stop-color="#fde68a"/><stop offset="1" stop-color="#f59e0b"/>
    </linearGradient>
  </defs>
  <rect x="1010" y="274" width="380" height="120" rx="8" fill="url(#prod)"/>
  <rect x="1150" y="296" width="100" height="34" rx="6" fill="#7c2d12" opacity="0.85"/>
  <text x="1200" y="318" font-size="13" font-weight="700" fill="#fde68a" text-anchor="middle">Barley Sattu</text>
  <text x="1200" y="350" font-size="10" fill="#7c2d12" text-anchor="middle">100% Natural &#183; High-Fiber</text>
  <!-- carousel arrows -->
  <circle cx="1020" cy="334" r="12" fill="#ffffff" stroke="#e5e7eb"/><text x="1020" y="339" font-size="12" fill="#475569" text-anchor="middle">&#8249;</text>
  <circle cx="1380" cy="334" r="12" fill="#ffffff" stroke="#e5e7eb"/><text x="1380" y="339" font-size="12" fill="#475569" text-anchor="middle">&#8250;</text>
  <text x="1200" y="418" font-size="13" font-weight="700" fill="#0f172a" text-anchor="middle">Barley Sattu (Jau Ka Sattu)</text>
  <text x="1200" y="438" font-size="12" fill="#64748b" text-anchor="middle">From Rs 499.00</text>
  <text x="1200" y="458" font-size="11" font-weight="600" fill="#4f46e5" text-anchor="middle">View Product</text>

  <!-- inspect/logs buttons -->
  <rect x="998" y="480" width="74" height="24" rx="7" fill="#f1f5f9"/><text x="1035" y="496" font-size="10" font-weight="600" fill="#475569" text-anchor="middle">&#128269; Inspect</text>
  <rect x="1080" y="480" width="60" height="24" rx="7" fill="#f1f5f9"/><text x="1110" y="496" font-size="10" font-weight="600" fill="#475569" text-anchor="middle">&#9776; Logs</text>

  <!-- second user bubble -->
  <rect x="1190" y="520" width="218" height="34" rx="12" fill="#e0e7ff"/>
  <text x="1299" y="542" font-size="11" fill="#3730a3" text-anchor="middle">can you show us in grid view?</text>

  <!-- agent reply -->
  <text x="998" y="584" font-size="11.5" fill="#0f172a">I can display product images in a visual card layout,</text>
  <text x="998" y="602" font-size="11.5" fill="#0f172a">similar to a grid, using a carousel. Want to see them</text>
  <text x="998" y="620" font-size="11.5" fill="#0f172a">presented this way?</text>
  <rect x="998" y="636" width="74" height="24" rx="7" fill="#f1f5f9"/><text x="1035" y="652" font-size="10" font-weight="600" fill="#475569" text-anchor="middle">&#128269; Inspect</text>
  <rect x="1080" y="636" width="118" height="24" rx="7" fill="#eef2ff"/><text x="1139" y="652" font-size="10" font-weight="600" fill="#4f46e5" text-anchor="middle">&#10024; Improve Response</text>

  <!-- input -->
  <rect x="976" y="800" width="402" height="44" rx="12" fill="#ffffff" stroke="#e5e7eb"/>
  <text x="996" y="827" font-size="12" fill="#94a3b8">Type a message…</text>
  <rect x="1386" y="800" width="44" height="44" rx="12" fill="#6366f1"/>
  <text x="1408" y="828" font-size="15" fill="#fff" text-anchor="middle">&#9656;</text>
  <text x="976" y="868" font-size="11" fill="#64748b">Model &#9656; claude-sonnet-4.6</text>
  <text x="1430" y="868" font-size="11" fill="#16a34a" text-anchor="end">&#9679; Connected</text>
</svg>
